<?xml version="1.0" encoding="utf-8"?>
<!-- Generator: Adobe Illustrator 27.9.4, SVG Export Plug-In . SVG Version: 9.03 Build 54784)  -->
<svg version="1.1" id="Layer_1" xmlns="http://www.w3.org/2000/svg" xmlns:xlink="http://www.w3.org/1999/xlink" x="0px" y="0px"
	 viewBox="0 0 50 50" style="enable-background:new 0 0 50 50;" xml:space="preserve">
<g fill="#110d1c" id="Calendar_Icon_00000111893568730434692560000001644575489447296139_">
	<path  d="M1.68,11.68c0.23-0.45,0.25-0.95,0.42-1.42C3.13,7.46,5.69,5.6,8.66,5.53c0.7-0.02,1.4-0.01,2.1,0
		c0.23,0,0.31-0.05,0.3-0.29c-0.02-0.49-0.01-0.98,0-1.47c0.02-1.03,0.78-1.8,1.77-1.81c1-0.01,1.77,0.77,1.8,1.82
		c0.01,0.49,0.01,0.98,0,1.47c-0.01,0.21,0.05,0.28,0.27,0.28c2.5-0.01,5-0.01,7.49,0c0.21,0,0.28-0.05,0.28-0.27
		c-0.02-0.49-0.01-0.98,0-1.47c0.02-1.06,0.79-1.83,1.79-1.83c1,0,1.76,0.78,1.78,1.84c0.01,0.48,0.01,0.95,0,1.43
		c-0.01,0.22,0.04,0.3,0.29,0.3c2.51-0.01,5.03-0.01,7.54,0c0.22,0,0.31-0.05,0.3-0.29c-0.02-0.49-0.01-0.98,0-1.47
		c0.02-1.03,0.78-1.8,1.76-1.81c1-0.01,1.78,0.77,1.8,1.82c0.01,0.45,0.02,0.89,0,1.34c-0.02,0.32,0.05,0.42,0.4,0.42
		c0.99,0,1.99-0.06,2.98,0.07c3,0.39,5.6,2.99,5.99,6c0.06,0.46,0.08,0.92,0.08,1.38c0,3.26,0,6.51,0,9.77c0,0.73-0.3,1.3-0.95,1.64
		c-0.6,0.32-1.21,0.29-1.78-0.06c-0.61-0.38-0.84-0.96-0.84-1.67c0.01-3.26,0-6.51,0-9.77c0-0.85-0.19-1.65-0.71-2.34
		c-0.69-0.93-1.63-1.4-2.78-1.45c-0.71-0.03-1.43,0-2.14-0.02c-0.22,0-0.27,0.07-0.27,0.28c0.01,0.49,0.01,0.98,0,1.47
		c-0.02,1.05-0.79,1.83-1.8,1.82c-0.98-0.01-1.74-0.78-1.77-1.81c-0.01-0.49-0.01-0.98,0-1.47c0-0.19-0.01-0.3-0.25-0.29
		c-2.54,0.01-5.08,0.01-7.63,0c-0.2,0-0.25,0.06-0.25,0.25c0.01,0.49,0.01,0.98,0,1.47c-0.02,1.06-0.77,1.84-1.77,1.84
		c-1,0.01-1.77-0.77-1.79-1.83c-0.01-0.49-0.01-0.98,0-1.47c0.01-0.22-0.06-0.27-0.27-0.27c-2.5,0.01-5,0.01-7.49,0
		c-0.22,0-0.28,0.06-0.27,0.28c0.01,0.46,0.01,0.92,0,1.38c-0.01,1.12-0.76,1.92-1.8,1.91c-1.02-0.01-1.76-0.8-1.77-1.89
		c-0.01-0.48,0-0.95,0-1.43c0-0.11,0.04-0.25-0.16-0.25c-0.99,0.04-2-0.13-2.97,0.14c-1.64,0.45-2.64,1.79-2.66,3.52
		c-0.01,0.89,0,1.78,0,2.68c0,8.28,0,16.56,0,24.84c0,1.84,0.97,3.17,2.66,3.66c0.39,0.11,0.79,0.13,1.19,0.13
		c4.39,0,8.77,0,13.16,0c0.78,0,1.4,0.26,1.78,0.96c0.53,0.98,0.03,2.19-1.03,2.52c-0.07,0.02-0.15-0.01-0.18,0.09
		c-5,0-9.99,0-14.99,0c-0.06-0.15-0.2-0.09-0.31-0.11c-2.69-0.59-4.51-2.17-5.48-4.75c-0.16-0.42-0.16-0.89-0.37-1.29
		C1.68,31.54,1.68,21.61,1.68,11.68z"/>
	<path d="M35.4,47.62c-0.44-0.22-0.94-0.19-1.41-0.32c-4.29-1.2-6.97-3.97-7.99-8.29c-0.99-4.2,1.04-8.97,4.71-11.24
		c4.09-2.53,8.9-2.34,12.62,0.69c3.15,2.57,4.5,5.98,3.85,10.02c-0.69,4.29-3.23,7.12-7.29,8.6c-0.68,0.25-1.4,0.38-2.13,0.46
		c-0.08,0.01-0.18-0.04-0.23,0.08C36.83,47.62,36.12,47.62,35.4,47.62z M43.79,36.83c0-3.98-3.26-7.23-7.23-7.23
		c-3.96,0.01-7.2,3.24-7.21,7.2c-0.02,3.97,3.23,7.24,7.21,7.25C40.52,44.06,43.79,40.81,43.79,36.83z"/>
	<path d="M14.62,20.7c-0.01,0.98-0.82,1.78-1.79,1.77c-0.98-0.01-1.78-0.82-1.77-1.79c0.01-0.98,0.82-1.78,1.79-1.77
		C13.82,18.91,14.62,19.72,14.62,20.7z"/>
	<path d="M22.38,20.68c0,0.98-0.8,1.78-1.78,1.78c-0.98,0-1.78-0.8-1.78-1.78c0-0.98,0.8-1.78,1.78-1.78S22.38,19.71,22.38,20.68z"
		/>
	<path d="M28.34,18.9c0.98-0.01,1.79,0.79,1.8,1.77c0.01,0.98-0.79,1.79-1.77,1.8c-0.98,0.01-1.79-0.79-1.8-1.77
		C26.56,19.72,27.36,18.91,28.34,18.9z"/>
	<path d="M37.9,20.7c-0.01,0.98-0.81,1.78-1.79,1.77c-0.98-0.01-1.78-0.81-1.77-1.79c0.01-0.98,0.81-1.78,1.79-1.77
		C37.1,18.91,37.9,19.72,37.9,20.7z"/>
	<path d="M14.62,28.43c0.01,0.98-0.79,1.79-1.77,1.8c-0.98,0.01-1.79-0.79-1.8-1.77c-0.01-0.98,0.79-1.79,1.77-1.8
		C13.79,26.65,14.61,27.45,14.62,28.43z"/>
	<path d="M20.61,26.66c0.98,0.01,1.78,0.82,1.77,1.8c-0.01,0.98-0.82,1.77-1.8,1.77c-0.98-0.01-1.78-0.82-1.77-1.8
		C18.82,27.45,19.63,26.66,20.61,26.66z"/>
	<path d="M14.62,36.19c0.01,0.98-0.79,1.79-1.76,1.8c-0.98,0.01-1.79-0.79-1.8-1.76c-0.01-0.98,0.79-1.79,1.76-1.8
		C13.79,34.41,14.61,35.21,14.62,36.19z"/>
	<path d="M22.38,36.21c0,0.98-0.8,1.78-1.78,1.78c-0.98,0-1.78-0.8-1.78-1.78c0-0.98,0.8-1.78,1.78-1.78
		C21.57,34.42,22.38,35.23,22.38,36.21z"/>
	<path d="M34.78,34.98c0-0.59-0.01-1.19,0-1.78c0.02-1.03,0.78-1.8,1.77-1.8c1-0.01,1.77,0.77,1.79,1.82c0.01,0.52,0.01,1.04,0,1.56
		c-0.01,0.21,0.05,0.28,0.27,0.28c0.32-0.01,0.65-0.03,0.97,0.06c0.85,0.23,1.41,1,1.34,1.86c-0.07,0.86-0.75,1.58-1.61,1.62
		c-0.96,0.04-1.93,0.04-2.9,0c-0.92-0.04-1.6-0.8-1.63-1.74C34.77,36.23,34.78,35.6,34.78,34.98z"/>
</g>
</svg>
