<?xml version="1.0" encoding="UTF-8"?>
<svg id="Layer_1" xmlns="http://www.w3.org/2000/svg" viewBox="0 0 29.26 35.2">
  <defs>
    <style>
      .cls-1 {
        fill: #fff;
      }
    </style>
  </defs>
  <path id="Trash_Icon" class="cls-1" d="M27.01,33c0,1.22-1.01,2.2-2.25,2.2H4.5c-1.24,0-2.25-.98-2.25-2.2V10.37h24.76v22.63ZM9.15,12.55h-3.49v18.3c0,.94.78,1.71,1.75,1.71s1.75-.76,1.75-1.71V12.55ZM16.38,12.55h-3.49v18.3c0,.94.78,1.71,1.75,1.71s1.75-.76,1.75-1.71V12.55ZM23.66,12.55h-3.49v18.3c0,.94.78,1.71,1.74,1.71s1.75-.76,1.75-1.71V12.55ZM0,4.55v3.61h29.26v-3.61c0-1.22-1.01-2.2-2.25-2.2h-8.84v-1.25s.04-1.1-1.09-1.1h-4.82c-1.13,0-1.17,1.1-1.17,1.1v1.25H2.25c-1.24,0-2.25.98-2.25,2.2Z"/>
</svg>